<?xml version="1.0" standalone="no"?>
<!DOCTYPE svg PUBLIC "-//W3C//DTD SVG 20010904//EN"
 "http://www.w3.org/TR/2001/REC-SVG-20010904/DTD/svg10.dtd">
<svg version="1.0" xmlns="http://www.w3.org/2000/svg"
 width="170.000000pt" height="50.000000pt" viewBox="0 0 170.000000 50.000000"
 preserveAspectRatio="xMidYMid meet">
<metadata>
Created by potrace 1.16, written by Peter Selinger 2001-2019
</metadata>
<g transform="translate(0.000000,50.000000) scale(0.100000,-0.100000)"
fill="#000000" stroke="none">
<path d="M125 485 c-109 -39 -155 -173 -91 -268 47 -69 124 -93 271 -85 l60 3
-1 115 c0 127 -10 158 -64 203 -29 25 -87 47 -120 47 -8 -1 -33 -7 -55 -15z
m143 -35 c58 -36 72 -72 72 -187 l0 -103 -96 0 c-150 0 -204 39 -212 149 -4
66 18 109 70 141 44 27 122 27 166 0z"/>
<path d="M108 374 c-29 -15 -35 -28 -19 -38 5 -3 14 1 21 9 18 22 43 18 74
-10 32 -30 65 -32 97 -6 33 26 19 36 -19 14 -31 -18 -31 -17 -59 8 -37 35 -62
41 -95 23z"/>
<path d="M80 260 c0 -6 43 -10 110 -10 67 0 110 4 110 10 0 6 -43 10 -110 10
-67 0 -110 -4 -110 -10z"/>
<path d="M769 222 c-27 -24 -33 -37 -36 -83 -5 -70 19 -113 75 -129 84 -26
149 37 139 134 -3 40 -11 55 -36 78 -43 39 -99 39 -142 0z m126 -15 c55 -46
40 -150 -25 -177 -94 -39 -161 100 -85 176 31 31 75 31 110 1z"/>
<path d="M490 125 c0 -141 18 -155 22 -17 l3 97 65 -97 c90 -134 100 -132 100
17 0 94 -3 115 -15 115 -11 0 -15 -20 -17 -95 l-3 -96 -62 96 c-34 52 -69 95
-78 95 -13 0 -15 -18 -15 -115z"/>
<path d="M980 233 c0 -5 16 -56 37 -116 27 -78 42 -107 54 -107 9 0 19 8 22
18 2 9 21 61 40 115 26 70 32 97 22 97 -8 0 -27 -39 -46 -100 -19 -55 -36
-100 -39 -100 -3 0 -20 45 -39 100 -18 55 -37 100 -42 100 -5 0 -9 -3 -9 -7z"/>
<path d="M1210 155 c0 -101 12 -131 57 -145 44 -15 88 -4 113 27 17 21 20 41
20 114 0 72 -3 89 -15 89 -12 0 -15 -17 -15 -94 0 -106 -8 -120 -66 -120 -56
0 -68 22 -72 124 -2 50 -8 90 -13 90 -5 0 -9 -38 -9 -85z"/>
<path d="M1460 126 c0 -95 3 -116 15 -116 11 0 15 20 17 98 l3 97 35 -95 c21
-57 41 -95 49 -95 8 0 28 38 50 95 l36 95 3 -97 c2 -78 6 -98 17 -98 12 0 15
21 15 115 0 113 0 115 -22 115 -20 0 -28 -13 -58 -95 -18 -52 -37 -95 -41 -95
-3 0 -22 42 -41 92 -28 74 -39 94 -56 96 -21 3 -22 0 -22 -112z"/>
</g>
</svg>
